# xmcd
#
# Track frame offsets: 
#        150
#        15377
#        36403
#        55520
#        71599
#        87523
#        104086
#        117821
#        132418
#        147595
#
# Disc length: 2332 seconds
#
# Revision: 0
# Processed by: cddbd v1.5.2PL0 Copyright (c) Steve Scherf et al.
# Submitted via: ExactAudioCopy v0.99pb3
#
DISCID=8f091a0a
DTITLE=Shawn James and the Shapeshifters - The Gospel According to... [C
DTITLE=D]
DYEAR=2015
DGENRE=Alt-Country
TTITLE0=No Gods
TTITLE1=Like Father Like Son
TTITLE2=Lost
TTITLE3=Wild Man
TTITLE4=Strange Days
TTITLE5=Lake of Fire
TTITLE6=Just Because
TTITLE7=Back Down
TTITLE8=Lilith
TTITLE9=The Sandbox
EXTD=
EXTT0=
EXTT1=
EXTT2=
EXTT3=
EXTT4=
EXTT5=
EXTT6=
EXTT7=
EXTT8=
EXTT9=
PLAYORDER=
